<svg xmlns="http://www.w3.org/2000/svg" viewBox="0 0 512 512" id="baby-clothes"><path d="M256 97.92a8.08 8.08 0 01-8.08-8.08V88.06a8.08 8.08 0 0116.16 0v1.78A8.08 8.08 0 01256 97.92zM256 125.83a8.08 8.08 0 01-8.08-8.08V116a8.08 8.08 0 0116.16 0v1.78A8.08 8.08 0 01256 125.83zM400.54 259.15a8.07 8.07 0 01-6.07-2.75l-32.26-36.7A8.08 8.08 0 01374.34 209l27.82 31.64L434.79 221V194C418.62 124 352.62 42.3 352 41.48a8.08 8.08 0 1112.53-10.2c2.83 3.49 69.61 86.18 86.26 160a7.57 7.57 0 01.2 1.77v32.56a8.06 8.06 0 01-3.91 6.92L404.7 258A8 8 0 01400.54 259.15z"></path><path d="M350.71,506.39h-66.3a8.07,8.07,0,0,1-8.07-8.08V487.23c-2.57-6.58-12.35-33.25-20.34-76-8,42.7-17.77,69.37-20.34,76v11.08a8.07,8.07,0,0,1-8.07,8.08h-66.3a8.08,8.08,0,0,1-8.08-8.08V486.39c-16.43-43.75-24.87-133.46-25.23-137.3,0-.14,0-.28,0-.43-1.59-40.34,7.34-131.24,7.72-135.09a8.41,8.41,0,0,1,.63-2.41C166.9,140.34,146.1,39.06,145.88,38a8.08,8.08,0,0,1,5.74-9.44l34.94-9.75A109.92,109.92,0,0,1,197.85,7.56a8.08,8.08,0,0,1,12.93,3.57c2.51,7.53,10.24,17.63,21.77,28.46A43.7,43.7,0,0,0,256,50.92a43.66,43.66,0,0,0,23.45-11.33C291,28.76,298.71,18.66,301.22,11.13a8.08,8.08,0,0,1,12.93-3.57,114.42,114.42,0,0,1,11.34,11.28l34.89,9.76A8.08,8.08,0,0,1,366.12,38c-.22,1-21,102.4,9.57,173.12a8.41,8.41,0,0,1,.63,2.41c.38,3.85,9.31,94.75,7.72,135.09,0,.15,0,.29,0,.43-.36,3.84-8.8,93.55-25.23,137.3v11.92A8.08,8.08,0,0,1,350.71,506.39Zm-58.22-16.15h50.15V484.9a7.9,7.9,0,0,1,.55-2.93c15.6-40.13,24.25-129.2,24.72-134.16,1.4-36.87-6.48-120.28-7.55-131.42C333,151.77,344.5,67.6,348.91,42.17L321.1,34.41a16,16,0,0,1-8.09-5.3c-.52-.64-1.11-1.3-1.73-2q-7,11.25-20.78,24.23A59.7,59.7,0,0,1,257,67.08a7.89,7.89,0,0,1-2.06,0A59.7,59.7,0,0,1,221.5,51.37q-13.78-12.94-20.78-24.23c-.62.67-1.21,1.34-1.74,2a15.92,15.92,0,0,1-8.09,5.3l-27.8,7.76C167.5,67.6,179,151.77,151.64,216.39c-1.07,11.14-8.95,94.55-7.55,131.42.47,5,9.12,94,24.72,134.16a7.9,7.9,0,0,1,.55,2.93v5.34h50.15v-4.56a8.17,8.17,0,0,1,.61-3.08c.2-.48,20.17-49.77,27.84-130.28a8.08,8.08,0,0,1,16.08,0c7.67,80.51,27.64,129.8,27.84,130.29a8.08,8.08,0,0,1,.61,3.07Z"></path><path d="M111.46,259.15A8,8,0,0,1,107.3,258L65,232.53a8.06,8.06,0,0,1-3.91-6.92V193.05a7.57,7.57,0,0,1,.2-1.77c16.65-73.82,83.43-156.51,86.26-160a8.08,8.08,0,1,1,12.53,10.2c-.66.82-66.68,82.59-82.84,152.48V221l32.63,19.63L137.66,209a8.08,8.08,0,1,1,12.13,10.67l-32.26,36.7A8.1,8.1,0,0,1,111.46,259.15Z"></path></svg>